<?xml version="1.0" standalone="no"?><!-- Generator: Gravit.io --><svg xmlns="http://www.w3.org/2000/svg" xmlns:xlink="http://www.w3.org/1999/xlink" style="isolation:isolate" viewBox="0 -10.239 93 70.477" width="93" height="70.477"><path d="M 66.356 -3.642 L 66.356 -5.266 C 66.356 -9.706 63.234 -11.508 59.389 -9.288 L 33.178 5.845 L 6.967 20.977 C 3.122 23.198 3.122 26.802 6.967 29.023 L 33.178 44.155 L 59.389 59.288 C 63.234 61.508 66.356 59.706 66.356 55.266 L 66.356 53.642 L 49.925 44.155 L 16.747 25 L 49.925 5.845 L 66.356 -3.642 Z" style="stroke:none;fill:#000000;stroke-miterlimit:10;"/><path d="M 93 -3.642 L 93 -5.266 C 93 -9.706 89.878 -11.508 86.033 -9.288 L 59.822 5.845 L 33.611 20.977 C 29.766 23.198 29.766 26.802 33.611 29.023 L 59.822 44.155 L 86.033 59.288 C 89.878 61.508 93 59.706 93 55.266 L 93 53.642 L 76.569 44.155 L 43.391 25 L 76.569 5.845 L 93 -3.642 Z" style="stroke:none;fill:#000000;stroke-miterlimit:10;"/></svg>