<?xml version="1.0" standalone="no"?><!-- Generator: Gravit.io --><svg xmlns="http://www.w3.org/2000/svg" xmlns:xlink="http://www.w3.org/1999/xlink" style="isolation:isolate" viewBox="0 -10.239 93 70.477" width="93" height="70.477"><path d="M 30.727 53.642 L 30.727 55.266 C 30.727 59.706 33.849 61.508 37.694 59.288 L 63.905 44.155 L 90.116 29.023 C 93.961 26.802 93.961 23.198 90.116 20.977 L 63.905 5.845 L 37.694 -9.288 C 33.849 -11.508 30.727 -9.706 30.727 -5.266 L 30.727 -3.642 L 47.158 5.845 L 80.336 25 L 47.158 44.155 L 30.727 53.642 Z" style="stroke:none;fill:#000000;stroke-miterlimit:10;"/><path d="M 4.083 53.642 L 4.083 55.266 C 4.083 59.706 7.205 61.508 11.051 59.288 L 37.262 44.155 L 63.472 29.023 C 67.318 26.802 67.318 23.198 63.472 20.977 L 37.262 5.845 L 11.051 -9.288 C 7.205 -11.508 4.083 -9.706 4.083 -5.266 L 4.083 -3.642 L 20.514 5.845 L 53.693 25 L 20.514 44.155 L 4.083 53.642 Z" style="stroke:none;fill:#000000;stroke-miterlimit:10;"/></svg>